# xmcd CD database file
#
# Track frame offsets:
#	150
#	19008
#	46518
#	74543
#	138163
#	149878
#	164972
#	175984
#	201272
#
# Disc length: 2880 seconds
#
# Revision: 0
# Processed by: cddbd v1.5.2PL0 Copyright (c) Steve Scherf et al.
# Submitted via: CDex 1.51
#
DISCID=8a0b3e09
DTITLE=Al Gromer Khan - Sitar Secrets
DYEAR=2009
DGENRE=New Age
TTITLE0=I Got Vilayat Khan's Blessing
TTITLE1=Raga Ahir Bhairav Alaap
TTITLE2=Raga Ahir Bhairav Gat
TTITLE3=Raga Sarasvati
TTITLE4=PB's Bombay Club
TTITLE5=A Bageswari Poem
TTITLE6=A Tantric Song
TTITLE7=Raga Tilak Kamod
TTITLE8=Caru Caru
EXTD=YEAR: 2009
EXTT0=
EXTT1=
EXTT2=
EXTT3=
EXTT4=
EXTT5=
EXTT6=
EXTT7=
EXTT8=
PLAYORDER=
